<?xml version="1.0" encoding="UTF-8" standalone="no"?>
<!-- Created with Inkscape (http://www.inkscape.org/) -->
<svg
   width="210mm"
   height="297mm"
   viewBox="0 0 210 297"
   version="1.1"
   id="svg5"
   xml:space="preserve"
   inkscape:export-filename="../../../bitmap.svg"
   inkscape:export-xdpi="96"
   inkscape:export-ydpi="96"
   inkscape:version="1.2.2 (b0a84865, 2022-12-01)"
   sodipodi:docname="drawing.svg"
   xmlns:inkscape="http://www.inkscape.org/namespaces/inkscape"
   xmlns:sodipodi="http://sodipodi.sourceforge.net/DTD/sodipodi-0.dtd"
   xmlns="http://www.w3.org/2000/svg"
   xmlns:svg="http://www.w3.org/2000/svg"><sodipodi:namedview
     id="namedview7"
     pagecolor="#ffffffff"
     bordercolor="#ffccbe"
     borderopacity="0.25"
     inkscape:showpageshadow="2"
     inkscape:pageopacity="0.0"
     inkscape:pagecheckerboard="0"
     inkscape:deskcolor="#d1d1d1"
     inkscape:document-units="mm"
     showgrid="false"
     inkscape:zoom="0.2102413"
     inkscape:cx="-575.52916"
     inkscape:cy="582.66382"
     inkscape:window-width="1741"
     inkscape:window-height="1045"
     inkscape:window-x="0"
     inkscape:window-y="44"
     inkscape:window-maximized="0"
     inkscape:current-layer="layer1" /><defs
     id="defs2" /><g
     inkscape:label="Layer 1"
     inkscape:groupmode="layer"
     id="layer1"><path
       style="fill:#c39191ff;stroke-width:0.168493"
       d="m 33.762501,287.58361 c -0.09389,-0.24693 -0.247716,-1.37056 -0.341854,-2.49695 -0.176934,-2.11694 -0.860022,-8.8759 -1.594802,-15.78013 -0.231778,-2.17777 -0.498752,-4.83153 -0.593296,-5.89725 -0.405125,-4.56672 -0.734561,-6.51837 -1.848632,-10.95203 -1.291501,-5.13973 -2.393359,-8.58717 -4.103171,-12.83788 -1.798711,-4.47173 -2.857416,-6.65576 -4.944216,-10.19957 -0.806185,-1.36905 -1.892616,-3.28532 -2.414298,-4.25837 -1.244159,-2.3206 -2.92872,-5.2105 -6.629632,-11.37326 -1.6695489,-2.78012 -3.6474046,-6.26792 -4.3952385,-7.75066 -3.2095491,-6.36362 -5.8918376,-16.30266 -6.32056588,-23.42049 -0.45464856,-7.54817 0.45171118,-15.25119 2.45834808,-20.8931 2.4413306,-6.86412 4.4871083,-11.28397 8.8127293,-19.03967 2.671346,-4.78964 5.122124,-9.70599 6.929409,-13.90065 1.349053,-3.13112 1.669697,-4.06836 2.363431,-6.9082 0.837864,-3.42984 1.857128,-8.55885 2.159703,-10.86779 0.197696,-1.50868 0.51844,-5.29451 1.042061,-12.299965 0.246168,-3.293409 0.37001,-6.741442 0.410197,-11.420467 0.06489,-7.553816 0.199629,-6.322319 -1.529106,-13.974668 -1.237277,-5.476902 -1.695947,-8.886086 -2.783281,-20.687624 -0.192097,-2.085095 -0.414103,-4.966322 -0.493331,-6.402723 -0.502004,-9.101135 2.044188,-22.782912 5.572713,-29.944525 1.19753,-2.430535 2.885825,-5.047744 4.384263,-6.7964998 1.287336,-1.5023754 5.654195,-6.0878762 5.968199,-6.2670109 0.315825,-0.1801796 0.757258,0.028437 0.751765,0.3552804 -0.0024,0.1522586 -1.187132,1.5278936 -2.632377,3.0569654 -4.363578,4.6166569 -6.260587,7.3365149 -8.21109,11.7727569 -1.822453,4.145017 -3.703286,12.204275 -4.507435,19.31415 -0.279273,2.469357 -0.29033,9.847423 -0.01767,11.79449 0.116801,0.834039 0.360797,3.298247 0.54221,5.476014 0.181399,2.177767 0.403137,4.490333 0.492743,5.139027 0.0896,0.6487 0.249164,2.089313 0.354593,3.201363 0.249268,2.629512 0.881972,6.312853 1.59185,9.267101 0.311746,1.297395 0.727836,3.230846 0.924672,4.296563 0.19683,1.065717 0.804331,3.378282 1.350013,5.139027 0.545664,1.76075 1.292289,4.262867 1.659166,5.560262 1.711479,6.052312 4.671545,16.206673 5.255503,18.028723 0.356417,1.11205 1.003345,3.15923 1.437633,4.5493 0.724282,2.31826 2.624645,7.38438 4.582259,12.21572 0.893015,2.20392 2.967498,6.34123 4.181925,8.34039 1.41805,2.33435 4.375264,4.92181 7.371892,6.45014 0.759917,0.38758 1.13062,0.45623 2.769735,0.51298 2.575899,0.0892 4.034389,-0.17414 8.89114,-1.60516 4.085967,-1.20392 12.267396,-5.0081 17.860227,-8.30463 2.226818,-1.31252 3.355313,-1.953 8.845866,-5.02047 1.251061,-0.69896 3.764063,-2.19955 5.584438,-3.33469 1.820395,-1.13514 4.549977,-2.76704 6.065741,-3.62645 1.51578,-0.85942 3.13506,-1.80377 3.59841,-2.09856 0.46336,-0.29478 1.55018,-0.89118 2.41518,-1.32533 1.79271,-0.89977 7.25716,-3.84447 7.82689,-4.21776 2.31423,-1.51634 8.73825,-1.26181 12.96273,0.51358 1.10295,0.46354 1.68724,0.51092 1.97816,0.16039 0.46736,-0.56316 -0.19227,-1.45979 -1.88884,-2.56748 -1.11281,-0.72654 -1.13732,-0.75816 -1.13732,-1.46745 0,-1.42783 -0.68619,-2.6278 -1.50369,-2.62957 -1.53296,-0.003 -2.31342,-0.70819 -2.14498,-1.93721 0.0565,-0.412382 0.0574,-0.868124 0.002,-1.012742 -0.15064,-0.392535 -0.96929,-0.755939 -1.70293,-0.755939 -0.82409,0 -1.0524,-0.235083 -1.0555,-1.08678 -0.003,-0.955674 -0.3136,-1.476467 -0.98228,-1.649594 -0.41948,-0.108596 -0.66561,-0.07901 -0.9629,0.115789 -0.21967,0.143925 -0.47504,0.261686 -0.56749,0.261686 -0.52436,0 -2.26489,0.846624 -3.76652,1.832087 -3.16962,2.080143 -3.53526,2.244813 -4.72612,2.128363 -0.57169,-0.0559 -4.0344,-0.116019 -7.69491,-0.133609 -5.630872,-0.02708 -6.966729,0.01414 -8.677368,0.268139 -4.183238,0.62095 -13.182114,3.26569 -18.012835,5.29396 -4.243031,1.7815 -9.507738,4.66318 -11.284073,6.17643 -0.584097,0.4976 -0.625951,0.60218 -0.78356,1.95787 -0.413043,3.55274 -0.572906,4.03112 -1.25918,3.76777 -0.322798,-0.12388 -0.317692,-0.47161 0.04117,-2.79314 0.260794,-1.68728 0.293988,-3.39038 0.294862,-15.128018 0.0019,-12.191398 -0.02885,-13.609138 -0.380221,-18.112967 -0.209751,-2.687457 -0.49582,-6.364813 -0.635819,-8.171896 C 60.652252,69.081897 60.206439,65.377866 59.46908,60.712535 59.154187,58.720112 58.846735,56.710834 58.785858,56.247478 58.725,55.784123 58.307037,53.736936 57.857079,51.698175 57.407115,49.659413 56.611697,45.94415 56.08947,43.442033 c -1.115002,-5.342176 -1.137054,-5.426672 -2.528214,-9.688331 -0.58991,-1.807085 -1.422989,-4.572462 -1.851297,-6.14528 -1.424961,-5.232748 -2.618512,-7.468338 -4.915826,-9.207639 -1.876759,-1.420876 -4.690621,-1.94998 -6.165737,-1.159368 -0.751311,0.402684 -1.111683,0.426468 -1.243834,0.0821 -0.285945,-0.745186 1.210792,-1.421369 3.157235,-1.426343 2.282552,-0.0058 4.059159,0.72912 5.848064,2.419239 1.97903,1.869757 3.109952,4.161531 4.401567,8.919635 0.457409,1.684955 1.284451,4.428345 1.837899,6.096423 1.224859,3.691668 1.536337,4.931677 3.153024,12.552708 2.110284,9.947819 2.082721,9.79599 3.365625,18.534201 0.389133,2.65057 1.048126,9.649615 1.419822,15.080098 0.704738,10.295908 0.715518,10.640255 0.656632,20.986204 l -0.05825,10.23615 0.758218,-0.55311 c 2.447998,-1.78575 6.599422,-4.03023 10.611741,-5.73724 2.841139,-1.20875 8.830143,-3.14394 13.482717,-4.35658 4.386422,-1.143297 5.040695,-1.198495 14.237634,-1.201155 l 8.25614,-0.0024 1.01313,-0.597743 c 1.82114,-1.074448 4.98375,-3.227107 4.93337,-3.35794 -0.0271,-0.07034 -0.88329,-0.863967 -1.90267,-1.76363 -1.01938,-0.899659 -2.68746,-2.374378 -3.70684,-3.277151 -5.01601,-4.442232 -10.08971,-8.420143 -16.350249,-12.819011 -3.801192,-2.670859 -10.772579,-6.70169 -14.126664,-8.167985 -1.123203,-0.491028 -3.059812,-1.395692 -4.303556,-2.010367 -1.243762,-0.614674 -2.684375,-1.233728 -3.201362,-1.37568 -1.571461,-0.43148 -1.726644,-0.526869 -1.667133,-1.02479 0.100539,-0.841222 0.441094,-0.842507 2.512864,-0.0095 2.632683,1.058557 4.560561,1.493495 10.935484,2.467079 5.209724,0.795639 6.041843,0.786177 8.387669,-0.09537 2.866883,-1.077342 4.792941,-2.513455 6.190607,-4.615831 0.90762,-1.365268 1.34583,-2.514047 1.61106,-4.223482 0.29075,-1.873989 0.15058,-2.955314 -0.57286,-4.419096 C 98.366551,49.738628 94.251368,45.536847 87.874238,40.928874 83.462293,37.740896 79.951558,35.391735 77.909296,34.260938 75.441448,32.8945 75.367006,32.835712 70.333624,28.277788 63.195162,21.813685 60.721115,19.245053 59.7261,17.264807 58.103362,14.035315 57.24506,9.1713954 57.179803,2.8352957 c -0.03243,-3.14953177 -0.05432,-2.94862307 0.32125,-2.94862307 0.173987,0 0.394493,0.0947774 0.490012,0.21061628 0.09565,0.11601035 0.254894,1.98919619 0.35454,4.17019489 0.321684,7.0419052 1.162462,10.7791332 3.066498,13.6304432 0.968631,1.450522 6.636323,6.905032 12.923948,12.437809 1.136958,1.000459 2.507141,2.023387 3.272518,2.443145 2.072056,1.136367 5.869461,3.598775 8.809606,5.71255 1.482738,1.065989 3.226113,2.310706 3.874172,2.766036 1.754006,1.232382 4.305982,3.490455 6.495799,5.747734 2.042282,2.105187 3.777154,4.499281 4.718834,6.511988 0.49559,1.059212 0.53443,1.270849 0.51819,2.823754 -0.0322,3.087136 -0.64351,4.936207 -2.412362,7.297675 -1.028883,1.373584 -2.268114,2.387203 -4.062278,3.322678 -2.85359,1.487873 -5.003489,1.898022 -7.954456,1.517514 -2.139539,-0.275881 -6.947629,-1.018122 -7.744548,-1.195552 -0.368171,-0.08197 -0.69746,-0.120986 -0.731748,-0.08669 -0.09013,0.09013 0.78526,0.513085 1.569646,0.758399 1.278538,0.399861 4.894564,2.229393 7.750667,3.921466 4.952742,2.934217 6.121136,3.726752 12.889689,8.743236 4.2356,3.139211 11.02741,8.905163 15.02039,12.751681 1.35981,1.309942 1.50007,1.400546 2.10621,1.360574 1.91656,-0.126392 2.62804,0.329948 2.83252,1.816789 0.11659,0.84767 0.12486,0.857509 0.81297,0.967552 1.52125,0.243251 2.25896,1.140478 2.09967,2.553675 -0.0786,0.69774 -0.0489,0.78125 0.32952,0.92512 0.2288,0.087 0.48693,0.11431 0.57363,0.0607 0.30385,-0.1878 1.31837,0.28945 1.8131,0.85291 0.45937,0.52318 0.77495,1.48658 0.90727,2.76961 0.0303,0.29422 0.28084,0.54879 0.88479,0.89917 1.27761,0.74119 2.04746,1.56482 2.26309,2.42117 0.25454,1.01089 -0.20859,1.77648 -1.24182,2.05281 l -0.44711,0.11958 0.51652,1.00801 c 3.0292,5.91133 5.90702,14.69936 6.89611,21.05866 0.29103,1.87109 0.69065,7.94374 0.68991,10.48375 0,2.80755 -0.24099,4.37151 -1.33468,8.69141 -1.15194,4.5499 -1.79893,6.39019 -3.30645,9.40469 -3.47557,6.94991 -5.04643,9.25202 -9.34309,13.69234 -2.30916,2.38638 -8.08282,7.46836 -10.46751,9.21352 -3.36548,2.46291 -9.99575,6.30635 -13.460765,7.80294 -4.822582,2.08294 -9.787021,3.52122 -15.751762,4.56359 -1.946089,0.34008 -3.694407,0.64906 -3.885138,0.68662 -0.857443,0.16885 -2.336776,4.93059 -3.11267,10.01917 -0.190765,1.25106 -0.607094,3.4878 -0.925173,4.97053 -1.775594,8.27675 -2.789365,14.47744 -3.787819,23.16775 -0.186319,1.62174 -0.526186,4.31342 -0.755252,5.9815 -1.128279,8.21599 -2.196284,20.08863 -2.394786,26.62185 -0.09187,3.02336 -0.121669,3.2482 -0.536044,4.04382 l -0.438773,0.84246 -0.05872,-0.58972 c -0.03229,-0.32435 -0.02321,-2.40944 0.0202,-4.63355 0.118874,-6.09076 1.016704,-16.83418 2.062843,-24.68418 0.57572,-4.31999 0.916127,-6.98908 1.171174,-9.18286 0.906121,-7.79415 1.888098,-13.70452 3.681244,-22.15679 0.324403,-1.52907 0.677376,-3.34879 0.784401,-4.04382 0.398184,-2.58595 1.206241,-6.0693 1.857921,-8.00909 0.369637,-1.10026 0.672064,-2.02296 0.672064,-2.05047 0,-0.0275 -0.831006,-0.05 -1.846663,-0.05 -1.015672,0 -2.588972,-0.10925 -3.49622,-0.24279 -0.907267,-0.13354 -2.900622,-0.36988 -4.429694,-0.52522 -1.529068,-0.15535 -2.874907,-0.35865 -2.990743,-0.45181 -0.275944,-0.22192 -0.270231,-0.74317 0.0093,-0.85043 0.120961,-0.0464 0.860222,-0.0181 1.642802,0.0631 0.782585,0.0811 2.256913,0.22701 3.276291,0.32428 1.019384,0.0973 2.61164,0.29709 3.538351,0.44408 2.431582,0.38566 4.108893,0.24059 10.278054,-0.88902 9.142147,-1.67396 14.939206,-3.86923 22.924397,-8.68115 3.83149,-2.30889 5.99938,-3.82675 8.1785,-5.72624 0.88917,-0.77507 2.66139,-2.31482 3.93826,-3.42169 2.31831,-2.00961 4.98269,-4.78318 6.88814,-7.17039 1.74902,-2.19125 3.15661,-4.50453 5.17508,-8.50495 2.14867,-4.25847 2.78076,-6.00227 4.09348,-11.29294 1.10071,-4.43618 1.1451,-4.86867 0.95453,-9.30116 -0.35021,-8.14582 -0.68436,-10.21831 -2.81789,-17.47663 -1.43042,-4.86633 -4.65956,-12.39679 -5.75275,-13.41554 -0.86975,-0.81055 -4.02149,-1.51539 -7.30351,-1.63332 -2.9079,-0.10448 -3.66142,0.0372 -5.10709,0.96 -0.55602,0.35493 -2.52738,1.44168 -4.38081,2.41498 -1.85341,0.97327 -3.9006,2.06651 -4.5493,2.42937 -3.20633,1.79356 -8.21771,4.72959 -10.783531,6.31782 -1.575411,0.97515 -4.001706,2.43845 -5.391768,3.25176 -1.390067,0.8133 -2.982323,1.76793 -3.53835,2.12139 -3.352161,2.13095 -13.699417,7.47722 -18.015811,9.3085 -3.755098,1.59315 -6.733241,2.52699 -10.712194,3.35897 -2.19519,0.45901 -5.565128,0.49468 -6.692682,0.0709 -1.896976,-0.71305 -5.54737,-3.42579 -7.132347,-5.30032 C 41.21278,129.86848 36.645012,119.5188 33.19598,108.64873 31.748609,104.08712 28.529374,93.169229 26.842354,87.100659 26.484595,85.813715 26.16333,84.732208 26.128435,84.697304 c -0.112923,-0.112914 -0.283456,3.465294 -0.283456,5.947356 0,2.509123 -0.607548,11.69929 -1.179112,17.83558 -0.52932,5.68302 -2.447779,14.92313 -3.800185,18.30338 -1.865162,4.6618 -4.794508,10.67162 -8.078914,16.57461 -4.6388948,8.33737 -7.4525519,14.58151 -9.2651664,20.5615 -1.2724772,4.19803 -1.9391639,9.2359 -1.9391639,14.65348 0,6.66174 0.9229331,12.05906 3.3133831,19.37666 1.8438411,5.64434 2.7783516,7.58263 7.2705942,15.0801 2.954225,4.93057 5.843536,9.89246 7.574918,13.00865 0.581518,1.04663 1.517628,2.69909 2.080261,3.67213 3.681684,6.36735 6.913022,14.8676 8.907398,23.43149 0.84053,3.6092 1.094651,5.11529 1.43384,8.49788 0.148678,1.48274 0.456803,4.43978 0.684707,6.57122 0.2279,2.13143 0.450331,4.29235 0.494272,4.80204 0.04394,0.50969 0.2662,2.78434 0.493885,5.05478 0.356904,3.5588 0.751817,8.04197 0.831159,9.4356 0.03587,0.62957 -0.67163,0.69204 -0.904387,0.0799 z"
       id="path179" /></g></svg>
